<svg xmlns="http://www.w3.org/2000/svg" width="95.6" height="78.7" viewBox="0 0 95.6 78.7"><defs><style>.cls-1{fill:#6c57f2;}</style></defs><title>3c</title><g id="Layer_2" data-name="Layer 2"><g id="Layer_1-2" data-name="Layer 1"><path class="cls-1" d="M12.3,65.4h0l1.8-1.8a17.5,17.5,0,0,1,6.5-33.8h2.1a1.5,1.5,0,0,0,1.7-.9,23,23,0,0,1,2.3-4.1l-2.3-2.3A27.5,27.5,0,0,0,22,26.7H20.6A20.7,20.7,0,0,0,11.7,66Z"/><path class="cls-1" d="M58.1,16.1a13.4,13.4,0,0,1,2.4,1.2L62,15.8h0l.8-.8a28.7,28.7,0,0,0-23-3.2A26.6,26.6,0,0,0,32.5,15l2.3,2.4A25.5,25.5,0,0,1,58.1,16.1Z"/><path class="cls-1" d="M85.7,40.1h0a11.2,11.2,0,0,0-10.4-8.7A27.7,27.7,0,0,0,71,22.6l-.8.8-.6.5-.9,1a23.4,23.4,0,0,1,3.8,8.5,1.5,1.5,0,0,0,1.7,1.2h.6a8,8,0,0,1,7.9,7,1.6,1.6,0,0,0,1.2,1.3,11.2,11.2,0,0,1-1.6,22L85,67.6a14.4,14.4,0,0,0,.7-27.5Z"/><path class="cls-1" d="M65.3,64.9H28.7l-2,2h0l-1.2,1.2H70l-3.2-3.2Z"/><path class="cls-1" d="M87.4,75.7l-7.5-7.6-3.2-3.2L61.8,50,51.3,39.5l-1.4-1.4,1.4-1.5,1.4-1.4L66.2,21.8l.8-.9.6-.6.8-.8L85.2,2.7a1.6,1.6,0,0,0,0-2.2,1.5,1.5,0,0,0-2.3,0L66.1,17.3l-.9.9-.5.5-.9.9L50.4,33,49,34.4h0l-1.4,1.4-1.4-1.4L31.5,19.7l-2.3-2.3L12.5.8h0L12.2.4a1.8,1.8,0,0,0-2-.1h-.1L9.9.6h0a.4.4,0,0,0-.1.3h0a.4.4,0,0,0-.1.3h0a2.3,2.3,0,0,0,.7,1.7L27,19.5l2.3,2.2L42.5,34.9l1.6,1.6,1.4,1.4-1.4,1.4h0l-1.5,1.5-24,24-1.1,1-.6.7-1,1L7.5,75.9a1.5,1.5,0,0,0,0,2.3,1.6,1.6,0,0,0,2.2,0L19.9,68.1,21,66.9l.8-.8L23,64.9,44.9,43l1.4-1.4h0l1.4-1.4,1.4,1.4L72.4,64.9l3.2,3.2,9.7,9.7a1.8,1.8,0,0,0,2.5.3,1.7,1.7,0,0,0-.4-2.4Z"/></g></g></svg>