<svg xmlns="http://www.w3.org/2000/svg" width="38" height="39" viewBox="0 0 38 39"><defs><style>.cls-1{fill:none;}.cls-2{fill:#6c57f2;}</style></defs><title>why3</title><g id="Layer_2" data-name="Layer 2"><g id="Layer_1-2" data-name="Layer 1"><g id="Ellipse_9" data-name="Ellipse 9"><circle class="cls-1" cx="6" cy="6" r="6"/><path class="cls-2" d="M6,12a6,6,0,1,1,6-6A6,6,0,0,1,6,12ZM6,1.7A4.3,4.3,0,0,0,1.7,6,4.3,4.3,0,0,0,6,10.3,4.3,4.3,0,0,0,10.3,6,4.3,4.3,0,0,0,6,1.7Z"/></g><g id="Ellipse_10" data-name="Ellipse 10"><circle class="cls-1" cx="32" cy="33" r="6"/><path class="cls-2" d="M32,39a6,6,0,1,1,6-6A6,6,0,0,1,32,39Zm0-10.4A4.4,4.4,0,1,0,36.3,33,4.4,4.4,0,0,0,32,28.6Z"/></g><g id="Polygon_1" data-name="Polygon 1"><path class="cls-1" d="M30.3,3A2,2,0,0,1,33,2.2a1.8,1.8,0,0,1,.7.8l3.5,6a1.9,1.9,0,0,1-.7,2.7,1.7,1.7,0,0,1-1,.3h-7a2,2,0,0,1-2-2,1.7,1.7,0,0,1,.3-1Z"/><path class="cls-2" d="M32,3.7h-.3l-3.5,6v.3l.3.2h7l.3-.2V9.8l-3.5-6H32M32,2a1.9,1.9,0,0,1,1.7,1l3.5,6a2,2,0,0,1-1.7,3h-7a2,2,0,0,1-1.7-3l3.5-6A1.9,1.9,0,0,1,32,2Z"/></g><g id="Rectangle_221" data-name="Rectangle 221"><path class="cls-1" d="M4,27H8a3.9,3.9,0,0,1,4,3.7v4.6A3.9,3.9,0,0,1,8,39H4a3.9,3.9,0,0,1-4-3.7V30.7A3.9,3.9,0,0,1,4,27Z"/><path class="cls-2" d="M8,39H4a3.9,3.9,0,0,1-4-3.7V30.7A3.9,3.9,0,0,1,4,27H8a3.9,3.9,0,0,1,4,3.7v4.6A3.9,3.9,0,0,1,8,39ZM4,28.6a2.2,2.2,0,0,0-2.3,2.1v4.6A2.2,2.2,0,0,0,4,37.4H8a2.2,2.2,0,0,0,2.3-2.1V30.7A2.2,2.2,0,0,0,8,28.6Z"/></g><g id="Group_152" data-name="Group 152"><g id="Line_17" data-name="Line 17"><path class="cls-2" d="M23.7,7.1H15a.9.9,0,0,1-.8-.8.9.9,0,0,1,.8-.9h8.7a.9.9,0,0,1,.9.9A.9.9,0,0,1,23.7,7.1Z"/></g><g id="Path_60" data-name="Path 60"><path class="cls-2" d="M18.4,11a.9.9,0,0,1-.6-.3L14.2,6.9a.9.9,0,0,1,0-1.2l3.6-3.8a.8.8,0,0,1,1.2,0,.8.8,0,0,1,.1,1.2L16,6.3l3.1,3.3a.8.8,0,0,1-.1,1.2Z"/></g></g><g id="Group_154" data-name="Group 154"><g id="Line_17-2" data-name="Line 17-2"><path class="cls-2" d="M23.5,34.7H14.9a.9.9,0,0,1-.9-.8.9.9,0,0,1,.9-.9h8.6a.9.9,0,0,1,.9.9A.9.9,0,0,1,23.5,34.7Z"/></g><g id="Path_60-2" data-name="Path 60-2"><path class="cls-2" d="M20.1,38.6l-.6-.2a.9.9,0,0,1,0-1.2l3-3.3-3-3.2a.9.9,0,0,1,0-1.2.8.8,0,0,1,1.2,0l3.6,3.8a.9.9,0,0,1,0,1.2l-3.6,3.8A.7.7,0,0,1,20.1,38.6Z"/></g></g><g id="Group_153" data-name="Group 153"><g id="Line_17-3" data-name="Line 17-3"><path class="cls-2" d="M6.3,25a.9.9,0,0,1-.9-.9V15.5a.9.9,0,0,1,.9-.9.9.9,0,0,1,.8.9v8.6A.9.9,0,0,1,6.3,25Z"/></g><g id="Path_60-3" data-name="Path 60-3"><path class="cls-2" d="M6.3,25.2,5.7,25,1.9,21.4c-.3-.4-.4-.9,0-1.2a.8.8,0,0,1,1.2-.1l3.2,3.1,3.3-3.1a.9.9,0,1,1,1.1,1.3L6.9,25Z"/></g></g><g id="Group_155" data-name="Group 155"><g id="Line_17-4" data-name="Line 17-4"><path class="cls-2" d="M31.6,25.2a.9.9,0,0,1-.8-.9V15.7a.9.9,0,0,1,.8-.9.9.9,0,0,1,.9.9v8.6A.9.9,0,0,1,31.6,25.2Z"/></g><g id="Path_60-4" data-name="Path 60-4"><path class="cls-2" d="M27.9,19.9a.9.9,0,0,1-.7-.3.8.8,0,0,1,.1-1.2l3.8-3.5a.7.7,0,0,1,1.2,0l3.8,3.5A.9.9,0,0,1,35,19.7l-3.3-3.1-3.3,3.1Z"/></g></g></g></g></svg>