<svg xmlns="http://www.w3.org/2000/svg" width="192.8" height="25.7" viewBox="0 0 192.8 25.7"><title>MetaPixel LOGO (2)</title><g id="Layer_2" data-name="Layer 2"><g id="Layer_1-2" data-name="Layer 1"><g id="MetaPixel_LOGO" data-name="MetaPixel LOGO"><g id="Group_1" data-name="Group 1"><g id="MetaPixel_LOGO_Image" data-name="MetaPixel LOGO Image"><rect id="Rectangle_31" data-name="Rectangle 31" y="8.2" width="7.1" height="7.15"/><rect id="Rectangle_32" data-name="Rectangle 32" y="16.4" width="7.1" height="7.15"/><rect id="Rectangle_33" data-name="Rectangle 33" x="8.4" y="16.4" width="7.1" height="7.15"/><rect id="Rectangle_34" data-name="Rectangle 34" x="18.9" y="18.5" width="7.1" height="7.15"/><rect id="Rectangle_35" data-name="Rectangle 35" x="8.4" y="8.2" width="7.1" height="7.15"/><rect id="Rectangle_36" data-name="Rectangle 36" width="7.1" height="7.15"/><rect id="Rectangle_37" data-name="Rectangle 37" x="8.4" width="7.1" height="7.15"/><rect id="Rectangle_38" data-name="Rectangle 38" x="16.8" width="7.1" height="7.15"/><rect id="Rectangle_39" data-name="Rectangle 39" x="16.8" y="8.2" width="7.1" height="7.15"/><path id="Path_1" data-name="Path 1" d="M50.8,22.1V6.8L43.1,19.5H41.7L34.1,6.9V22.1H31.2V1h2.5l8.8,14.9L51.2,1h2.4V22.1Z"/><path id="Path_2" data-name="Path 2" d="M71.4,19.5v2.6H56.1V1H71V3.7H59.1v6.4H69.7v2.6H59.1v6.8Z"/><path id="Path_3" data-name="Path 3" d="M80.5,3.7H73.2V1H90.7V3.7H83.4V22.1H80.5Z"/><path id="Path_4" data-name="Path 4" d="M106.4,16.9H95.1l-2.3,5.2H89.7L99.3,1h3l9.6,21.1h-3.2Zm-1.1-2.4L100.8,4.1,96.2,14.5Z"/><path id="Path_5" data-name="Path 5" d="M128.4,3a6.5,6.5,0,0,1,2.4,5.4,6.5,6.5,0,0,1-2.4,5.4,9.8,9.8,0,0,1-6.4,2h-5.3v6.3h-3V1H122A9.8,9.8,0,0,1,128.4,3Zm-2.2,8.9a4.1,4.1,0,0,0,1.5-3.5,4.1,4.1,0,0,0-1.5-3.5,6.6,6.6,0,0,0-4.3-1.2h-5.2v9.4h5.2a6.6,6.6,0,0,0,4.3-1.2Z"/><path id="Path_6" data-name="Path 6" d="M133,1h3V22.1h-3Z"/><path id="Path_7" data-name="Path 7" d="M154.7,22.1l-6.3-8.7-6.3,8.7h-3.4l7.9-10.8L139.1,1h3.5l5.9,8.1L154.3,1h3.3l-7.4,10.2,8,10.9Z"/><path id="Path_8" data-name="Path 8" d="M175.5,19.5v2.6H160.2V1h14.9V3.7H163.2v6.4h10.6v2.6H163.2v6.8Z"/><path id="Path_9" data-name="Path 9" d="M178.3,1h3V19.5h11.5v2.6H178.3Z"/></g></g></g></g></g></svg>