<svg xmlns="http://www.w3.org/2000/svg" width="226.8" height="30.2" viewBox="0 0 226.8 30.2"><defs><style>.cls-1{fill:#132fe1;}</style></defs><title>MetaPixel LOGO</title><g id="Layer_2" data-name="Layer 2"><g id="Layer_1-2" data-name="Layer 1"><g id="MetaPixel_LOGO" data-name="MetaPixel LOGO"><g id="Group_1" data-name="Group 1"><g id="MetaPixel_LOGO_Image" data-name="MetaPixel LOGO Image"><rect id="Rectangle_31" data-name="Rectangle 31" class="cls-1" y="9.7" width="8.4" height="8.41"/><rect id="Rectangle_32" data-name="Rectangle 32" class="cls-1" y="19.3" width="8.4" height="8.41"/><rect id="Rectangle_33" data-name="Rectangle 33" class="cls-1" x="9.9" y="19.3" width="8.4" height="8.41"/><rect id="Rectangle_34" data-name="Rectangle 34" class="cls-1" x="22.3" y="21.8" width="8.4" height="8.41"/><rect id="Rectangle_35" data-name="Rectangle 35" class="cls-1" x="9.9" y="9.7" width="8.4" height="8.41"/><rect id="Rectangle_36" data-name="Rectangle 36" class="cls-1" width="8.4" height="8.41"/><rect id="Rectangle_37" data-name="Rectangle 37" class="cls-1" x="9.9" width="8.4" height="8.41"/><rect id="Rectangle_38" data-name="Rectangle 38" class="cls-1" x="19.8" width="8.4" height="8.41"/><rect id="Rectangle_39" data-name="Rectangle 39" class="cls-1" x="19.8" y="9.7" width="8.4" height="8.41"/><path id="Path_1" data-name="Path 1" class="cls-1" d="M59.7,26.1V8L50.8,23H49.1l-9-14.9v18H36.7V1.2h2.9L50,18.7,60.2,1.2h2.9V26.1Z"/><path id="Path_2" data-name="Path 2" class="cls-1" d="M84,22.9V26H66V1.2H83.5V4.3h-14v7.6H82v3H69.5v8Z"/><path id="Path_3" data-name="Path 3" class="cls-1" d="M94.7,4.3H86.1V1.2h20.6V4.3H98.2V26.1H94.7Z"/><path id="Path_4" data-name="Path 4" class="cls-1" d="M125.1,19.8H111.9l-2.7,6.3h-3.6L116.8,1.2h3.5l11.3,24.9h-3.8ZM123.9,17,118.5,4.8l-5.3,12.3Z"/><path id="Path_5" data-name="Path 5" class="cls-1" d="M151.1,3.5a7.8,7.8,0,0,1,2.8,6.4,7.6,7.6,0,0,1-2.8,6.3,11.1,11.1,0,0,1-7.6,2.3h-6.2v7.6h-3.5V1.2h9.7A12.2,12.2,0,0,1,151.1,3.5ZM148.5,14a4.9,4.9,0,0,0,1.8-4.1,5.3,5.3,0,0,0-1.8-4.2,8.4,8.4,0,0,0-5.1-1.4h-6.1V15.4h6.1a7.2,7.2,0,0,0,5.1-1.4Z"/><path id="Path_6" data-name="Path 6" class="cls-1" d="M156.5,1.2H160V26.1h-3.5Z"/><path id="Path_7" data-name="Path 7" class="cls-1" d="M182,26.1l-7.4-10.3-7.4,10.3h-4.1l9.4-12.8L163.7,1.2h4l7,9.5,6.9-9.5h3.9l-8.8,12,9.4,12.9Z"/><path id="Path_8" data-name="Path 8" class="cls-1" d="M206.5,22.9V26h-18V1.2H206V4.3H192v7.6h12.5v3H192v8Z"/><path id="Path_9" data-name="Path 9" class="cls-1" d="M209.8,1.2h3.5V22.9h13.5V26h-17Z"/></g></g></g></g></g></svg>