<svg xmlns="http://www.w3.org/2000/svg" width="85" height="75.2" viewBox="0 0 85 75.2"><defs><style>.cls-1{fill:#6c57f2;}</style></defs><title>2c</title><g id="Layer_2" data-name="Layer 2"><g id="Layer_1-2" data-name="Layer 1"><path class="cls-1" d="M76.8,0H8.2A8.2,8.2,0,0,0,0,8.2v49a8.3,8.3,0,0,0,8.2,8.2H34l-1.1,6.5H29.4a1.6,1.6,0,0,0-1.6,1.6,1.7,1.7,0,0,0,1.6,1.7H55.5a1.7,1.7,0,0,0,1.7-1.7,1.7,1.7,0,0,0-1.7-1.6H52l-1.1-6.5H76.8A8.3,8.3,0,0,0,85,57.2V8.2A8.2,8.2,0,0,0,76.8,0ZM3.3,8.2A4.9,4.9,0,0,1,8.2,3.3H76.8a4.9,4.9,0,0,1,4.9,4.9V49H3.3ZM36.2,71.9l1.1-6.5H47.6l1.1,6.5ZM81.7,57.2a4.9,4.9,0,0,1-4.9,4.9H8.2a4.9,4.9,0,0,1-4.9-4.9V52.3H81.7Z"/><circle class="cls-1" cx="42.5" cy="57.1" r="1.5"/></g></g></svg>