<svg xmlns="http://www.w3.org/2000/svg" width="122.5" height="80.3" viewBox="0 0 122.5 80.3"><defs><style>.cls-1{fill:#6c57f2;}</style></defs><title>4c</title><g id="Layer_2" data-name="Layer 2"><g id="Layer_1-2" data-name="Layer 1"><path class="cls-1" d="M120.9,37.4l-3.5-4.5a117.6,117.6,0,0,0-13-13.4A90.7,90.7,0,0,0,85.2,6.1,52.8,52.8,0,0,0,61.2,0C51.8,0,42,3,32,9l-.5.3-2.9,1.9-.7.5A82,82,0,0,0,18,19.4,116.7,116.7,0,0,0,5.1,32.8q-2.5,3-3.6,4.5C.1,39.3,0,39.6,0,40.2S.1,41,1.5,43s1.9,2.5,3.6,4.5A125.5,125.5,0,0,0,18,60.9,92,92,0,0,0,37.3,74.2a52.7,52.7,0,0,0,23.9,6.1c9.1,0,18.5-2.8,28.1-8.3l.5-.3,3-1.8.7-.5a99.6,99.6,0,0,0,10.9-8.5,116.7,116.7,0,0,0,13-13.3c1.7-2.1,2.8-3.6,3.5-4.6s1.6-2.3,1.6-2.8S122.3,39.3,120.9,37.4Zm-2.5,3.2a112.3,112.3,0,0,1-17.2,18.6c-9.3,8-23.8,17.7-40,17.7S30.5,67.2,21.2,59A116.1,116.1,0,0,1,4,40.5l-.2-.4.2-.4A111.7,111.7,0,0,1,21.2,21.2c9.4-8.1,23.9-17.7,40-17.7s30.7,9.7,40.1,17.8a111.1,111.1,0,0,1,17.1,18.5l.3.4Z"/><path class="cls-1" d="M61.2,58.8A14.3,14.3,0,0,0,75.5,44.5V37.7a4.3,4.3,0,0,0-4.1-4.3h-.7V31a9.5,9.5,0,0,0-19,0v2.4h-.6a4.4,4.4,0,0,0-4.2,4.3v6.8A14.3,14.3,0,0,0,61.2,58.8ZM55.2,31a6.1,6.1,0,0,1,12.1,0v2.4H55.2Zm-4.8,6.7a.9.9,0,0,1,.9-.8H71.2a.9.9,0,0,1,.9.8v6.8a10.9,10.9,0,0,1-21.7,0Z"/><path class="cls-1" d="M90.7,35.1a5,5,0,0,1-.2-1.2.4.4,0,0,1-.1-.3l-.3-1.1c0-.1-.1-.3-.1-.4l-.3-.9a1.4,1.4,0,0,0-.2-.6,2.4,2.4,0,0,0-.2-.8l-.3-.7a1.4,1.4,0,0,1-.2-.6,9.3,9.3,0,0,1-.5-1c0-.1-.1-.2-.1-.3A29.9,29.9,0,0,0,31.7,36a32.3,32.3,0,0,0,.9,12.4c0,.1.1.2.1.3s.3.8.4,1.2h0l.9,2.1h0a7.6,7.6,0,0,0,.9,1.8c0,.1.1.2.1.3h.1a34.2,34.2,0,0,0,5.1,6.9h0a29.8,29.8,0,0,0,50.5-26ZM37.9,52.3a11.9,11.9,0,0,1-.8-1.6h0A26.5,26.5,0,0,1,61.2,13.8a26,26,0,0,1,4,.3h.1l1.2.2h.2l1.1.3h.1L69,15h.1l1.2.4h0A26.5,26.5,0,0,1,87.6,40.1a23.9,23.9,0,0,1-.9,6.6h0L86.4,48h0a5.6,5.6,0,0,0-.4,1.2h0A26.3,26.3,0,0,1,61.2,66.4a16.9,16.9,0,0,1-3.2-.1H56.8a27.2,27.2,0,0,1-14.2-7.4A24.6,24.6,0,0,1,37.9,52.3Z"/></g></g></svg>