<svg xmlns="http://www.w3.org/2000/svg" width="40.7" height="40.7" viewBox="0 0 40.7 40.7"><defs><style>.cls-1{fill:#6c57f2;}</style></defs><title>why1</title><g id="Layer_2" data-name="Layer 2"><g id="Layer_1-2" data-name="Layer 1"><path class="cls-1" d="M40.7,17.9a9.3,9.3,0,0,0-1.4-3.6c.3-3.5-.5-6.2-2.3-7.9a6.5,6.5,0,0,0-3.7-1.8,4.7,4.7,0,0,0-4.7-2.7,6.7,6.7,0,0,0-6-1.8,5.5,5.5,0,0,0-2.2,1,6.2,6.2,0,0,0-2.2-1,6.8,6.8,0,0,0-6.1,1.8A4.5,4.5,0,0,0,7.5,4.6,6.8,6.8,0,0,0,3.7,6.4c-1.8,1.7-2.5,4.4-2.3,7.9A9.2,9.2,0,0,0,.1,17.9c-.3,1.9.1,4.6,3.4,6.8A6.6,6.6,0,0,0,7.1,32a4.5,4.5,0,0,0,.5,3.2,4.6,4.6,0,0,0,2.8,1.7c.7.9,3,3.8,5.8,3.8h.1a5.8,5.8,0,0,0,4.1-2.5,5.6,5.6,0,0,0,4.1,2.5c2.8,0,5.1-2.9,5.8-3.8a3.8,3.8,0,0,0,3.4-4.2,1.7,1.7,0,0,0-.1-.7,6.5,6.5,0,0,0,3.6-7.2l.2-.2A7,7,0,0,0,40.7,17.9ZM16.2,39.2c-2,.1-4-2.4-4.6-3.3a.9.9,0,0,0-.6-.4,2.6,2.6,0,0,1-2.1-1.1,3.3,3.3,0,0,1-.2-2.6.5.5,0,0,0-.4-.8h0c-4.4-1.7-3.2-6.3-3.2-6.5a.5.5,0,0,0-.3-.7c-5.8-3.5-2.1-8.7-2-8.9a.8.8,0,0,0,.2-.5c-.3-3.2.3-5.5,1.8-7A5.5,5.5,0,0,1,8,6a.8.8,0,0,0,.7-.5,3.2,3.2,0,0,1,3-2.2h.5a.7.7,0,0,0,.7-.2,5.4,5.4,0,0,1,4.8-1.6,4,4,0,0,1,2,.9V36.6C18.6,38.3,17.4,39.2,16.2,39.2ZM32.4,31a.7.7,0,0,0-.4.8h0a3.3,3.3,0,0,1-.2,2.6,2.6,2.6,0,0,1-2.1,1.1l-.6.4c-.6.9-2.6,3.3-4.6,3.3h0c-1.2,0-2.4-.9-3.4-2.7h0V2.4a6.1,6.1,0,0,1,1.8-.9,4.9,4.9,0,0,1,4.1,1L25.7,4.2a.8.8,0,0,0,.2,1,.8.8,0,0,0,1-.2l1.2-1.7h.4a3.2,3.2,0,0,1,3.2,1.6,5.6,5.6,0,0,0-3.7,5,.7.7,0,1,0,1.4,0A4.5,4.5,0,0,1,32.7,6a5.2,5.2,0,0,1,3.2,1.4c1.5,1.5,2.1,3.8,1.8,7a.8.8,0,0,0,.2.5A8.4,8.4,0,0,1,39.1,18c.3,2.4-.7,4.3-3.2,5.8a.5.5,0,0,0-.3.5,3.4,3.4,0,0,1-2.4.4c-1.6-.4-2.4-2.5-2.4-2.6a.8.8,0,0,0-.9-.4c-.4.2-.6.6-.4.9a5.6,5.6,0,0,0,3.3,3.5h1.1a6.5,6.5,0,0,0,1.9-.4A5.1,5.1,0,0,1,32.4,31Z"/><path class="cls-1" d="M35.9,18.8c.4-.1.5-.5.4-.9h0a.8.8,0,0,0-.9-.4c-.1.1-3.5,1.2-5.3-1.1a13.7,13.7,0,0,1-1.6-3.2c-.4-1-.8-2-2-2.1s-.8.2-.8.6a.8.8,0,0,0,.7.8c.3,0,.4.2.8,1.2A11.6,11.6,0,0,0,29,17.2a5.1,5.1,0,0,0,4.3,2A7.5,7.5,0,0,0,35.9,18.8Z"/><path class="cls-1" d="M23.4,15.5c2.5-3.2,2.5-8,2.5-8.2a.8.8,0,0,0-.7-.7h0a.8.8,0,0,0-.7.8h0s0,4.4-2.2,7.2a.8.8,0,0,0,.1,1A.8.8,0,0,0,23.4,15.5Z"/><path class="cls-1" d="M27.5,28.9a7,7,0,0,0-1.4.3,6.7,6.7,0,0,0-2.2-4.7.9.9,0,0,0-1,0,.7.7,0,0,0,0,1,5.3,5.3,0,0,1,1.8,4.6v.2a8.8,8.8,0,0,0-1.8,3.1c-.2.3,0,.7.4.9h.2a.8.8,0,0,0,.7-.5c.3-.9,1.6-3.5,3.3-3.5a.7.7,0,0,0,.7-.7A.8.8,0,0,0,27.5,28.9Z"/><path class="cls-1" d="M17.6,24.7a2.7,2.7,0,0,0-2-2.7V18.3a.7.7,0,0,0-.7-.7H13.3V11.8a2.8,2.8,0,0,0,2-2.7,2.9,2.9,0,1,0-3.4,2.8v5.7H9.2a2.7,2.7,0,0,0-2.7-2.2,2.8,2.8,0,0,0-2.8,2.8,2.7,2.7,0,0,0,2.8,2.8,2.7,2.7,0,0,0,2.7-2.2h5v2.9A2.8,2.8,0,0,0,12,24.7a2.8,2.8,0,0,0,2.2,2.7v2.3a2.8,2.8,0,0,0,.6,5.5,2.7,2.7,0,0,0,2.8-2.8,2.8,2.8,0,0,0-2-2.7V27.4A2.9,2.9,0,0,0,17.6,24.7ZM11,9.1a1.5,1.5,0,0,1,1.5-1.4,1.5,1.5,0,0,1,1.4,1.4,1.5,1.5,0,0,1-1.4,1.5A1.5,1.5,0,0,1,11,9.1ZM6.5,19.7a1.4,1.4,0,0,1,0-2.8,1.4,1.4,0,0,1,0,2.8Zm6.9,5a1.4,1.4,0,1,1,2.8,0,1.4,1.4,0,0,1-2.8,0Zm2.8,7.7a1.4,1.4,0,0,1-1.4,1.4h0a1.4,1.4,0,1,1,1.4-1.4Z"/></g></g></svg>