<svg xmlns="http://www.w3.org/2000/svg" width="45.7" height="40.4" viewBox="0 0 45.7 40.4"><defs><style>.cls-1{fill:#6c57f2;}</style></defs><title>why2</title><g id="Layer_2" data-name="Layer 2"><g id="Layer_1-2" data-name="Layer 1"><path class="cls-1" d="M41.3,0H4.4A4.4,4.4,0,0,0,0,4.4V30.7a4.4,4.4,0,0,0,4.4,4.4H18.3l-.6,3.5H15.8a.9.9,0,0,0,0,1.8H29.9a.9.9,0,0,0,0-1.8H28l-.6-3.5H41.3a4.4,4.4,0,0,0,4.4-4.4V4.4A4.4,4.4,0,0,0,41.3,0ZM19.5,38.6l.6-3.5h5.5l.6,3.5Zm24.4-7.9a2.7,2.7,0,0,1-2.6,2.7H4.4a2.6,2.6,0,0,1-2.6-2.7V28.1H43.9Zm0-4.4H1.8V4.4A2.5,2.5,0,0,1,4.4,1.8H41.3a2.6,2.6,0,0,1,2.6,2.6Z"/><path class="cls-1" d="M22.8,31.5a.8.8,0,0,0,.8-.8.7.7,0,0,0-.8-.8.8.8,0,0,0-.8.8A.9.9,0,0,0,22.8,31.5Z"/></g></g></svg>